<?xml version="1.0" standalone="no"?>
<!DOCTYPE svg PUBLIC "-//W3C//DTD SVG 20010904//EN"
 "http://www.w3.org/TR/2001/REC-SVG-20010904/DTD/svg10.dtd">
<svg version="1.0" xmlns="http://www.w3.org/2000/svg"
 width="300px" height="300px" viewBox="0 0 954.000000 1280.000000"
 preserveAspectRatio="xMidYMid meet">
<g transform="translate(0.000000,1280.000000) scale(0.100000,-0.100000)"
fill="#e91e63" stroke="none">
<path d="M4025 12760 c-113 -74 -184 -84 -267 -38 -56 31 -111 21 -211 -39
-93 -57 -134 -73 -187 -73 -26 0 -73 -19 -154 -60 -85 -44 -128 -60 -157 -60
-64 0 -92 -21 -134 -102 -60 -116 -70 -126 -133 -144 -71 -20 -120 -66 -164
-151 -21 -40 -40 -65 -53 -68 -11 -2 -32 -6 -46 -9 -18 -4 -41 -28 -77 -79
-28 -40 -77 -100 -110 -133 -76 -77 -139 -200 -153 -299 -11 -81 -23 -102
-100 -175 -53 -51 -58 -59 -64 -112 -11 -87 20 -201 76 -279 28 -40 20 -80
-31 -152 -37 -51 -40 -61 -40 -119 0 -74 14 -100 118 -217 l62 -72 -15 -35
c-19 -47 -19 -97 1 -137 9 -18 76 -91 150 -163 158 -155 168 -176 66 -140
-125 44 -234 39 -330 -16 -99 -56 -140 -156 -149 -359 -5 -116 -4 -133 21
-219 53 -184 167 -357 265 -399 28 -12 100 -29 159 -37 72 -11 111 -21 120
-32 7 -10 12 -47 12 -96 0 -75 24 -205 55 -301 27 -83 135 -317 181 -392 75
-121 225 -312 340 -433 112 -116 304 -283 398 -346 38 -25 53 -41 47 -47 -6
-6 -61 -16 -123 -23 -278 -30 -840 -149 -1001 -213 -121 -48 -332 -157 -452
-234 -60 -38 -139 -88 -174 -109 -114 -70 -262 -196 -430 -367 -165 -166 -240
-257 -320 -387 -143 -231 -184 -309 -257 -492 -30 -73 -74 -177 -98 -230 -24
-53 -56 -135 -71 -182 -15 -47 -45 -120 -66 -163 l-39 -77 98 -98 98 -98 -29
-80 c-83 -227 -138 -524 -168 -909 -41 -517 -34 -813 22 -1025 57 -213 284
-542 419 -608 25 -12 93 -33 150 -47 58 -14 117 -30 131 -36 14 -5 81 -11 150
-12 103 -2 130 -5 153 -21 28 -18 29 -20 22 -85 -14 -129 -25 -327 -26 -434 0
-59 -7 -152 -15 -205 -8 -53 -24 -178 -36 -277 -11 -99 -32 -238 -45 -310 -14
-72 -28 -172 -31 -222 -6 -88 -5 -93 14 -93 39 0 55 34 64 136 12 141 43 253
78 284 16 14 34 41 40 61 7 20 21 45 33 55 34 32 40 62 49 244 4 96 12 238 18
315 6 77 12 214 15 305 3 91 8 173 11 182 11 29 72 50 123 44 69 -8 174 -15
492 -31 157 -8 366 -22 465 -30 99 -8 281 -19 405 -25 412 -18 604 -30 725
-45 65 -8 147 -15 180 -15 33 0 123 -9 200 -20 77 -11 179 -20 227 -20 117 0
185 -16 220 -50 15 -16 28 -37 28 -48 0 -11 10 -32 21 -46 12 -15 43 -81 70
-146 100 -246 178 -344 514 -641 166 -148 175 -155 218 -172 53 -23 63 -52 49
-140 -6 -40 -14 -128 -18 -198 -6 -124 -6 -125 19 -154 25 -29 25 -30 46 -11
31 28 39 74 44 250 5 202 3 200 146 190 80 -5 111 -2 184 16 161 40 282 101
336 168 49 63 141 260 192 414 65 199 72 271 74 808 2 427 15 635 44 738 6 19
22 131 36 250 20 166 31 221 44 235 9 10 50 24 94 32 43 8 90 21 105 29 15 7
64 25 109 40 90 30 136 57 166 98 19 26 19 29 3 87 -9 33 -21 126 -26 208 -5
81 -21 238 -35 348 -14 110 -30 249 -36 310 -5 60 -20 186 -34 280 -14 93 -37
252 -51 353 -41 302 -50 330 -167 537 -86 151 -136 225 -201 294 -46 48 -200
166 -382 290 -65 45 -165 116 -221 159 -55 42 -150 106 -209 142 -132 79 -290
195 -356 261 -67 67 -94 132 -104 249 -14 181 -12 189 102 264 155 104 386
317 482 446 31 41 85 110 120 154 65 81 106 160 168 324 19 51 57 148 84 215
27 67 54 154 60 192 7 39 20 113 30 165 29 150 40 233 40 313 0 45 5 80 13 91
13 17 18 18 67 6 64 -15 148 -8 198 18 26 13 46 35 69 78 54 99 60 144 39 313
-16 136 -17 155 -2 273 26 203 21 245 -40 330 -20 28 -51 54 -87 73 -55 29
-57 32 -57 70 0 81 21 170 50 216 55 85 52 141 -11 199 l-41 37 23 74 c32 106
30 161 -6 198 l-28 30 32 36 c123 140 130 353 15 461 -35 33 -35 35 -26 79 18
83 -10 150 -93 221 -54 47 -55 48 -55 104 0 63 -22 159 -45 194 -9 13 -32 35
-51 48 -44 30 -72 73 -112 173 -52 130 -60 139 -166 190 -52 25 -128 53 -168
62 -40 9 -89 27 -108 39 -51 33 -153 57 -209 49 -25 -4 -79 -25 -119 -47 -71
-39 -77 -40 -145 -36 -61 4 -86 12 -162 52 -85 44 -96 47 -190 53 -85 5 -104
10 -128 30 -35 28 -53 29 -137 3 -87 -26 -103 -25 -144 10 -57 51 -99 62 -246
70 l-136 7 -59 41 c-33 22 -72 43 -88 47 -15 4 -30 11 -33 16 -12 19 -62 6
-119 -31z m132 -66 c4 -12 -84 -30 -94 -20 -3 3 -3 12 1 21 4 12 17 15 48 13
23 -2 43 -8 45 -14z m-547 -73 c0 -12 -28 -22 -34 -12 -3 5 -3 11 1 15 9 9 33
7 33 -3z m650 -27 c30 -8 93 -17 140 -21 50 -3 116 -16 160 -31 64 -22 93 -26
196 -26 101 -1 123 -4 138 -18 26 -26 56 -31 122 -19 32 6 80 11 106 11 44 0
54 -4 98 -46 58 -55 102 -69 251 -85 l109 -11 67 45 c38 26 80 49 95 52 21 5
63 -11 193 -74 92 -44 185 -86 208 -93 56 -15 67 -25 67 -57 0 -15 15 -49 33
-75 17 -27 44 -67 60 -89 15 -23 27 -49 27 -59 0 -10 13 -24 30 -33 38 -20 46
-35 59 -120 8 -55 19 -82 55 -135 55 -82 76 -123 76 -150 0 -12 9 -35 20 -50
15 -21 21 -48 23 -98 3 -66 5 -72 45 -117 98 -111 94 -290 -8 -357 -19 -13
-36 -32 -38 -42 -2 -10 8 -43 24 -73 26 -53 27 -55 11 -89 -24 -49 -21 -82 13
-168 30 -74 30 -77 15 -110 -9 -19 -23 -37 -31 -40 -10 -4 -14 -22 -14 -60 0
-68 -17 -150 -40 -197 -10 -19 -43 -61 -72 -92 -66 -69 -102 -133 -118 -210
-10 -49 -8 -81 9 -210 62 -455 55 -759 -30 -1223 -40 -220 -80 -330 -187 -514
-135 -231 -202 -312 -456 -553 -195 -185 -224 -206 -322 -238 -63 -20 -76 -30
-159 -115 -86 -89 -170 -154 -199 -154 -27 0 -34 27 -45 165 -18 222 -43 348
-78 401 -35 54 -157 92 -250 78 -119 -18 -201 -194 -194 -420 3 -120 -4 -129
-102 -119 -83 8 -357 97 -472 154 -92 46 -192 111 -356 234 -123 92 -318 284
-434 430 -73 92 -224 306 -247 352 -8 17 -27 50 -41 75 -48 84 -108 252 -148
414 -35 145 -39 173 -38 278 0 64 -2 122 -6 127 -11 19 -61 12 -145 -19 -99
-37 -157 -38 -225 -6 -117 54 -188 195 -201 402 -6 82 -3 117 9 162 9 31 19
69 22 84 8 39 60 95 100 108 21 7 91 10 186 8 l151 -3 25 29 c23 27 24 34 18
90 -9 78 -13 85 -103 181 -125 133 -161 203 -162 311 0 34 -10 55 -60 124 -86
119 -106 195 -74 281 22 59 20 169 -5 304 -23 124 -22 129 45 188 53 45 59 62
34 96 -42 60 -17 133 84 242 34 36 89 115 123 175 89 156 92 158 145 156 56
-3 65 7 83 93 8 42 23 77 37 92 13 14 69 47 124 74 68 33 110 60 127 82 33 44
105 81 207 107 52 13 111 37 152 61 67 40 109 50 158 35 21 -6 35 0 75 32 115
91 175 102 237 46 48 -43 62 -42 175 13 112 54 166 59 293 27z m-950 -83 c0
-10 -30 -24 -37 -17 -3 3 -2 9 2 15 8 13 35 15 35 2z m2995 -309 c0 -18 -20
-15 -23 4 -3 10 1 15 10 12 7 -3 13 -10 13 -16z m-4205 -1492 c0 -5 -5 -10
-11 -10 -5 0 -7 5 -4 10 3 6 8 10 11 10 2 0 4 -4 4 -10z m5 -49 c3 -5 1 -12
-5 -16 -5 -3 -10 1 -10 9 0 18 6 21 15 7z m4623 -720 c43 -30 60 -93 68 -245
3 -67 17 -170 30 -230 13 -60 24 -134 24 -165 0 -86 -21 -111 -135 -166 -52
-25 -104 -45 -115 -45 -38 0 -53 53 -61 215 -4 89 -3 157 2 168 14 25 37 21
53 -11 8 -16 22 -35 31 -42 46 -38 88 107 51 178 -9 17 -25 36 -35 42 -25 13
-68 13 -76 0 -3 -5 -17 -10 -30 -10 -26 0 -29 7 -39 80 -2 19 -7 54 -11 77 -4
23 -5 53 -1 67 8 34 54 86 91 102 41 20 116 12 153 -15z m-4638 -159 c-20 -35
-49 -66 -55 -60 -10 10 2 41 26 66 23 25 45 21 29 -6z m2682 -2352 c58 -16 96
-54 113 -113 23 -77 33 -149 64 -470 16 -161 34 -303 39 -317 6 -15 6 -45 1
-75 -5 -27 -11 -140 -15 -250 -10 -323 19 -550 71 -550 29 0 30 42 5 144 -21
79 -22 108 -21 336 1 137 6 268 11 290 5 22 23 71 40 108 37 82 74 111 134
103 107 -13 119 -100 57 -416 -22 -113 -42 -221 -44 -240 -8 -62 12 -171 53
-289 58 -170 80 -284 80 -424 0 -93 -4 -131 -21 -180 -25 -74 -99 -240 -175
-392 -63 -126 -65 -149 -35 -291 20 -92 109 -434 134 -514 51 -163 241 -606
399 -930 44 -90 83 -183 86 -204 3 -22 18 -61 34 -86 72 -114 253 -818 309
-1203 28 -193 55 -318 70 -328 32 -20 60 -10 75 27 13 31 13 41 0 87 -27 94
-66 266 -66 291 0 36 25 56 73 56 23 0 92 17 154 38 78 27 115 36 123 28 27
-27 1 -405 -36 -535 -27 -92 -84 -208 -138 -282 -52 -70 -191 -188 -262 -221
-53 -25 -82 -31 -194 -39 -130 -11 -131 -11 -184 15 -39 19 -95 69 -212 188
-87 90 -171 181 -185 203 -45 71 -156 259 -178 303 -12 24 -37 65 -56 90 -56
79 -141 234 -180 328 -20 49 -43 100 -51 114 -71 130 -247 582 -303 783 -83
292 -186 844 -197 1047 -3 58 -7 177 -8 265 -4 265 -31 464 -77 556 -9 19 -45
72 -78 116 -75 102 -96 144 -110 216 -12 66 -26 96 -91 192 -60 89 -86 141
-167 334 -72 173 -93 252 -92 356 0 145 33 261 96 335 15 18 41 61 59 94 41
82 55 88 184 80 121 -7 131 -3 150 67 13 48 58 101 104 123 66 31 155 17 200
-33 25 -28 44 -27 58 4 17 38 -5 356 -32 465 -19 73 -21 105 -17 230 4 122 8
158 31 227 31 96 48 119 101 138 49 17 69 18 117 5z m-1086 -341 c3 -6 -11
-28 -33 -49 -46 -46 -129 -193 -143 -253 -14 -63 -12 -207 5 -263 28 -96 131
-217 232 -275 30 -17 52 -34 50 -38 -1 -3 -15 -31 -29 -61 -14 -30 -44 -77
-66 -104 -52 -62 -61 -101 -62 -266 -1 -123 2 -148 34 -280 54 -217 61 -237
122 -340 181 -307 218 -382 230 -470 6 -44 23 -76 107 -200 l100 -148 9 -379
c5 -208 6 -418 3 -468 -3 -49 -1 -151 4 -225 7 -120 13 -150 54 -275 47 -144
95 -360 83 -372 -4 -4 -35 0 -69 10 -34 9 -162 37 -285 62 -281 56 -396 86
-508 129 -91 35 -184 61 -334 96 -115 26 -380 103 -520 150 -156 53 -215 66
-430 90 -102 11 -192 23 -200 26 -8 3 -87 9 -175 14 -172 8 -223 21 -247 62
-10 18 -13 109 -13 428 0 369 2 417 22 545 12 77 29 201 38 275 20 166 78 460
111 560 14 41 32 104 40 140 19 78 134 502 140 511 10 17 85 332 81 342 -8 23
-95 -79 -103 -120 -4 -21 -27 -83 -51 -138 -88 -196 -160 -381 -186 -475 -14
-52 -44 -160 -66 -240 -46 -163 -111 -444 -111 -477 0 -12 -5 -34 -12 -48 -17
-37 -59 -32 -148 16 -54 30 -98 45 -160 56 -47 8 -152 37 -233 64 -81 27 -160
49 -176 49 -16 0 -40 9 -55 21 -34 27 -34 74 0 154 14 33 45 116 69 185 101
298 237 569 425 850 20 30 52 80 72 110 41 65 200 242 284 318 73 66 329 236
409 273 33 15 105 51 160 81 55 29 116 60 135 67 19 8 71 31 116 53 44 21 150
64 235 94 84 31 184 67 221 80 76 27 188 41 433 53 262 12 383 12 391 0z m110
-84 c3 -8 -4 -103 -15 -210 -30 -271 -21 -317 85 -426 35 -37 64 -72 64 -78 0
-18 -48 -44 -72 -37 -28 7 -118 77 -171 131 -21 21 -52 69 -70 105 -30 61 -32
71 -30 163 3 112 14 145 92 260 64 95 104 127 117 92z m294 -55 c47 -22 130
-51 185 -66 122 -32 190 -65 208 -102 19 -35 37 -144 37 -215 0 -67 -26 -104
-63 -92 -57 17 -115 17 -153 -1 -52 -25 -108 -83 -138 -143 -14 -27 -29 -52
-34 -55 -21 -13 -114 47 -186 119 -86 88 -102 125 -91 209 12 90 63 288 78
303 12 12 12 21 3 44 -9 24 -8 32 4 40 20 13 50 5 150 -41z m1228 -99 c24 -15
44 -152 24 -165 -4 -2 -39 4 -77 15 -101 28 -112 26 -161 -27 -55 -60 -69 -55
-77 27 -8 87 -2 92 93 83 l76 -6 48 41 c50 44 54 45 74 32z m190 -404 c182
-166 356 -283 799 -537 89 -51 234 -185 321 -297 178 -230 227 -312 291 -489
36 -103 83 -327 80 -385 -3 -41 22 -384 42 -599 21 -226 43 -629 35 -638 -4
-3 -45 7 -94 22 -111 35 -178 41 -327 27 -145 -13 -408 0 -618 29 -99 14 -196
20 -323 20 -152 0 -184 3 -195 16 -10 12 -10 47 -1 182 7 92 17 185 22 207 16
69 50 345 50 406 0 32 5 70 10 84 12 32 -4 68 -28 63 -24 -5 -59 -163 -72
-332 -18 -232 -38 -411 -49 -439 -23 -59 -47 -22 -67 102 -18 115 -76 322
-115 419 -41 98 -44 189 -10 305 18 62 20 81 10 93 -13 16 -11 20 26 43 47 29
141 269 165 423 19 116 9 276 -23 368 -36 106 -88 350 -94 445 -4 68 0 104 31
239 20 88 36 167 36 175 0 36 22 91 36 91 8 0 36 -19 62 -43z m-4577 -1803
c15 -7 88 -29 163 -49 75 -19 177 -50 225 -68 69 -26 94 -31 115 -24 32 11 56
-5 56 -37 0 -12 -9 -58 -19 -102 -10 -43 -27 -142 -36 -219 -9 -77 -23 -185
-31 -239 -8 -55 -14 -160 -14 -234 0 -127 1 -136 24 -163 24 -28 56 -140 56
-194 0 -54 43 -107 117 -144 55 -28 260 -82 453 -121 85 -17 202 -44 260 -60
58 -16 155 -40 215 -54 313 -72 450 -105 545 -134 58 -18 224 -59 370 -93 146
-33 333 -75 415 -94 83 -19 159 -35 171 -35 11 0 76 -16 145 -35 93 -27 139
-35 184 -33 l60 3 17 -70 c38 -149 113 -385 159 -495 42 -102 54 -145 50 -187
-1 -16 -139 -16 -276 -2 -49 5 -254 13 -455 18 -287 8 -408 15 -565 35 -245
30 -402 43 -700 56 -126 6 -286 15 -355 20 -69 5 -223 15 -342 21 -119 5 -261
17 -315 25 -54 8 -175 18 -269 24 -318 17 -403 50 -488 188 -44 71 -115 246
-181 447 -50 150 -65 213 -75 300 -14 131 -9 564 8 670 7 39 18 138 26 220 8
83 24 204 35 270 12 66 33 185 47 263 25 148 81 316 111 339 17 13 51 9 94
-13z m609 -790 c0 -8 -5 -12 -10 -9 -6 4 -8 11 -5 16 9 14 15 11 15 -7z m6
-131 c-6 -14 -9 -15 -16 -4 -11 19 -1 46 13 32 5 -5 7 -18 3 -28z m4724 -258
c343 -6 355 -6 377 -27 33 -31 38 -79 19 -172 -53 -256 -84 -488 -89 -661 -2
-95 -13 -101 -57 -32 -20 33 -30 60 -30 88 0 78 -48 127 -153 155 -89 24 -194
18 -300 -16 -103 -33 -162 -38 -193 -16 -12 8 -43 64 -70 123 -27 59 -90 189
-140 288 -93 184 -119 247 -111 268 5 13 100 13 747 2z m724 -49 c79 -30 146
-67 146 -82 0 -14 -27 -37 -65 -57 -42 -21 -274 -81 -282 -73 -9 9 25 207 39
223 17 20 92 15 162 -11z m-314 -596 c0 -5 -7 -10 -16 -10 -8 0 -12 5 -9 10 3
6 10 10 16 10 5 0 9 -4 9 -10z m-327 -108 c27 -12 47 -27 47 -37 0 -18 -51
-51 -92 -60 -15 -4 -28 -11 -28 -15 0 -37 -288 -123 -337 -101 -28 13 -62 82
-63 127 0 51 26 71 120 94 116 27 283 23 353 -8z m58 -159 c39 -23 55 -64 39
-102 -22 -54 -52 -72 -188 -107 -71 -18 -158 -43 -193 -53 -62 -20 -65 -20
-82 -2 -12 12 -21 39 -24 79 l-6 61 44 10 c95 24 266 83 304 105 49 29 68 31
106 9z m159 -158 c0 -8 -4 -15 -10 -15 -5 0 -10 7 -10 15 0 8 5 15 10 15 6 0
10 -7 10 -15z m-120 -90 c40 -21 70 -62 70 -98 0 -40 -62 -99 -132 -125 -57
-21 -291 -57 -314 -48 -8 3 -14 13 -14 23 0 10 -7 31 -15 47 -20 37 -19 90 1
110 25 26 47 35 139 56 48 11 99 27 113 35 35 19 115 19 152 0z m48 -300 c87
-98 21 -210 -156 -265 -85 -26 -189 -24 -208 5 -16 24 -47 202 -39 223 3 10
14 13 33 9 15 -3 34 -1 44 4 9 5 62 18 119 29 56 11 104 22 107 25 3 3 20 5
38 5 24 0 39 -9 62 -35z m-1760 -98 c2 -15 -1 -27 -6 -27 -17 0 -34 29 -28 46
9 23 31 11 34 -19z"/>
<path d="M4536 12422 c-3 -3 -6 -12 -6 -19 0 -17 42 -14 47 3 4 12 -32 26 -41
16z"/>
<path d="M4125 12411 c-48 -12 -93 -39 -111 -67 -26 -39 -8 -41 61 -5 70 35
117 38 123 8 2 -10 -7 -27 -22 -38 -59 -46 -17 -102 85 -113 67 -8 94 5 101
49 3 21 3 21 -84 8 -47 -6 -54 7 -33 66 19 56 19 58 -7 75 -31 19 -76 26 -113
17z"/>
<path d="M3726 12385 c-8 -9 -13 -22 -10 -30 8 -19 18 -19 34 0 7 8 21 15 30
15 25 0 50 10 50 21 0 15 -87 10 -104 -6z"/>
<path d="M4845 12373 c-31 -8 -55 -34 -55 -59 0 -36 18 -38 49 -5 33 35 32 35
83 21 49 -14 53 -33 18 -74 -17 -18 -30 -42 -30 -51 0 -15 6 -17 48 -11 53 7
138 46 135 61 -1 6 -11 11 -22 13 -11 2 -32 19 -47 39 -36 48 -122 80 -179 66z"/>
<path d="M3309 12220 c-68 -12 -131 -42 -162 -79 -15 -18 -27 -36 -27 -41 0
-22 24 -20 49 4 33 32 44 32 64 4 l15 -23 56 28 c53 27 96 30 96 6 0 -5 7 -9
15 -9 21 0 21 83 -1 104 -17 17 -33 18 -105 6z"/>
<path d="M5595 12218 c-56 -20 -69 -40 -36 -58 14 -7 29 -6 54 5 53 22 107 2
107 -40 0 -22 -50 -75 -82 -88 -10 -4 -8 -10 7 -22 16 -14 35 -16 100 -11 44
3 89 1 100 -3 24 -10 78 14 72 32 -2 7 -30 14 -62 17 l-58 5 -13 44 c-14 47
-53 94 -96 117 -31 16 -51 17 -93 2z"/>
<path d="M3626 12079 c-30 -24 -66 -88 -66 -119 0 -35 30 -22 49 23 27 64 44
74 85 52 56 -31 89 2 46 45 -26 26 -80 26 -114 -1z"/>
<path d="M2689 11733 c-20 -21 -63 -55 -97 -75 -75 -45 -98 -83 -82 -133 6
-18 18 -39 26 -46 14 -11 15 -8 9 32 -6 38 -3 47 17 65 13 12 41 27 63 34 90
28 130 70 123 127 -4 39 -19 38 -59 -4z"/>
<path d="M6212 11760 c-26 -11 -27 -9 35 -97 70 -99 114 -128 153 -103 12 8 5
18 -37 56 -29 25 -53 54 -53 64 0 10 16 27 36 39 19 12 34 27 31 34 -5 15
-132 20 -165 7z"/>
<path d="M3049 11652 c-59 -31 -99 -80 -98 -121 0 -25 1 -25 12 -6 27 44 95
105 118 105 34 0 44 -9 64 -55 15 -35 18 -38 25 -20 15 35 11 71 -11 99 -26
33 -44 33 -110 -2z"/>
<path d="M6423 11233 c-29 -20 -31 -68 -4 -83 31 -16 35 -47 12 -86 -48 -82
-10 -114 53 -44 46 51 47 86 5 134 -29 33 -30 37 -15 58 9 12 16 26 16 30 0
14 -44 8 -67 -9z"/>
<path d="M2374 11065 c-16 -16 -23 -32 -19 -44 3 -10 -3 -29 -15 -44 -25 -31
-26 -90 -2 -136 26 -53 47 -54 38 -2 -6 39 -5 41 30 58 57 28 64 46 29 83 -29
30 -29 31 -11 60 30 52 -6 69 -50 25z"/>
<path d="M5515 10494 c-28 -30 -35 -94 -12 -111 6 -6 62 -13 122 -16 119 -7
190 -23 280 -62 108 -48 132 -21 53 58 -69 69 -155 110 -287 136 -129 26 -127
26 -156 -5z"/>
<path d="M2500 10424 c-20 -52 -12 -98 26 -148 37 -49 59 -54 94 -19 13 13 11
18 -22 46 -33 28 -35 34 -24 50 18 23 10 53 -22 77 -32 26 -41 25 -52 -6z"/>
<path d="M3730 10348 c-58 -33 -127 -76 -153 -96 -76 -58 -173 -196 -192 -274
-12 -47 9 -32 78 56 79 101 105 121 234 186 130 64 163 91 163 135 0 60 -16
59 -130 -7z"/>
<path d="M5584 9801 c-65 -6 -99 -26 -115 -68 -34 -89 120 -138 202 -65 42 38
51 102 18 126 -13 9 -28 15 -34 14 -5 0 -38 -4 -71 -7z"/>
<path d="M4893 9768 c-31 -35 -45 -85 -33 -127 5 -20 19 -85 30 -146 23 -116
134 -465 175 -546 14 -26 36 -64 50 -85 55 -81 20 -151 -92 -183 -246 -72
-283 -89 -283 -135 0 -44 25 -52 83 -28 29 12 105 35 169 51 209 52 263 98
255 214 -3 48 -14 78 -60 165 -203 383 -246 501 -254 707 -3 66 -8 123 -12
128 -4 4 -16 -3 -28 -15z"/>
<path d="M3904 9723 c-6 -4 -16 -18 -23 -30 -42 -81 48 -161 135 -119 57 27
85 122 41 139 -27 10 -142 18 -153 10z"/>
<path d="M2258 9420 c-32 -19 -19 -36 65 -88 45 -29 101 -66 125 -84 35 -27
46 -30 68 -22 15 5 33 19 42 31 14 22 12 25 -39 73 -30 27 -74 60 -98 72 -51
24 -137 34 -163 18z"/>
<path d="M5309 8083 c-49 -75 -129 -95 -292 -73 -136 18 -210 0 -467 -112
-152 -67 -266 -98 -384 -107 -71 -5 -91 -10 -100 -24 -9 -15 -7 -21 9 -34 17
-12 40 -14 132 -9 128 8 148 13 333 91 292 124 325 130 540 111 117 -10 158
-1 234 56 50 37 56 45 56 78 0 33 -14 60 -30 60 -4 0 -18 -17 -31 -37z"/>
<path d="M5050 7755 c-35 -37 -72 -43 -234 -39 -148 4 -186 -2 -186 -31 0 -31
42 -40 210 -41 179 -1 215 7 245 52 17 27 17 75 -1 81 -5 2 -21 -8 -34 -22z"/>
<path d="M8215 10585 c-112 -19 -144 -30 -211 -73 -76 -49 -150 -124 -194
-198 -34 -57 -35 -60 -35 -169 0 -170 -1 -169 163 -247 178 -86 207 -95 232
-73 11 10 31 49 46 87 32 80 87 137 152 156 61 19 165 15 233 -8 74 -25 101
-41 157 -94 63 -59 84 -107 90 -197 4 -70 2 -81 -24 -130 -30 -54 -104 -121
-159 -144 -48 -20 -237 -45 -384 -50 -160 -6 -219 -24 -302 -89 -49 -39 -61
-55 -104 -152 -40 -89 -50 -122 -53 -179 -7 -124 25 -141 276 -149 172 -5 172
-5 172 73 0 22 4 42 8 45 5 3 64 12 133 21 299 39 560 110 758 206 89 43 117
63 185 133 96 96 127 154 158 293 26 117 27 170 5 283 -34 175 -81 255 -207
352 -104 80 -221 139 -407 203 -306 105 -494 132 -688 100z m407 -119 c183
-27 410 -111 505 -187 248 -200 246 -197 287 -324 30 -93 34 -194 12 -322 -44
-248 -231 -385 -636 -467 -119 -24 -356 -46 -496 -46 -60 0 -68 -3 -96 -30
-28 -29 -30 -35 -24 -79 7 -56 -3 -66 -56 -50 -18 5 -67 9 -110 9 -100 0 -113
11 -104 89 9 80 67 194 117 230 45 33 151 52 421 76 137 12 178 19 230 41 216
90 271 164 283 382 6 114 -14 177 -82 253 -55 60 -89 83 -203 135 -83 37 -88
38 -202 39 l-116 0 -89 -46 c-87 -46 -88 -46 -109 -104 -29 -81 -41 -87 -118
-66 -124 34 -204 119 -193 203 16 121 128 231 278 273 68 19 344 14 501 -9z"/>
<path d="M628 8725 c-104 -17 -196 -49 -300 -102 -69 -35 -102 -61 -155 -117
-110 -118 -132 -179 -163 -462 -12 -109 -6 -139 41 -198 26 -33 91 -65 133
-66 16 0 59 13 95 29 36 17 104 41 151 55 102 31 147 57 161 94 9 23 6 36 -22
87 -58 106 -40 227 42 283 80 55 282 3 349 -90 38 -51 45 -94 30 -160 -12 -49
-24 -64 -147 -187 -74 -74 -151 -155 -171 -180 -20 -25 -53 -65 -74 -88 -21
-24 -38 -51 -38 -61 0 -10 -13 -56 -30 -102 -16 -47 -30 -104 -30 -127 0 -102
86 -111 249 -26 53 28 117 56 142 63 49 13 69 32 69 67 0 43 26 79 67 91 91
27 267 210 337 351 203 404 7 780 -444 851 -85 13 -196 11 -292 -5z m369 -133
c92 -34 237 -118 294 -169 25 -23 44 -55 63 -105 44 -123 32 -203 -58 -367
-45 -83 -77 -125 -206 -268 -16 -17 -72 -58 -125 -90 -88 -54 -95 -60 -95 -90
0 -40 -27 -66 -83 -82 -23 -6 -63 -21 -89 -33 -61 -27 -78 -20 -78 34 0 76 82
188 205 282 39 29 107 88 152 130 86 80 135 158 148 234 7 44 -17 177 -40 222
-22 43 -119 125 -186 159 -56 28 -71 31 -154 31 -112 0 -174 -18 -240 -67 -69
-54 -107 -110 -113 -172 -6 -66 1 -89 43 -142 44 -56 45 -89 4 -123 -17 -14
-35 -26 -39 -26 -5 0 -34 -11 -64 -25 -67 -30 -98 -31 -143 -4 -46 29 -74 88
-85 182 -11 99 6 167 61 247 76 111 245 219 406 260 65 16 105 19 210 16 116
-2 139 -6 212 -34z"/>
<path d="M7905 8624 c-100 -54 -143 -161 -99 -246 37 -74 113 -128 180 -128
31 0 45 7 78 43 41 43 96 160 96 205 0 31 -22 71 -59 107 -28 26 -40 30 -99
32 -48 2 -76 -1 -97 -13z m114 -117 c37 -19 65 -61 58 -89 -9 -35 -44 -68 -74
-68 -37 0 -119 48 -132 77 -10 22 -8 28 23 59 37 37 80 44 125 21z"/>
<path d="M852 7151 c-61 -16 -108 -56 -141 -122 -43 -87 -30 -128 66 -196 63
-45 99 -50 162 -23 152 66 189 249 65 322 -37 21 -107 30 -152 19z m128 -111
c26 -26 35 -66 21 -96 -22 -48 -152 -82 -183 -48 -29 33 -28 99 3 138 18 23
28 26 80 26 45 0 64 -5 79 -20z"/>
</g>
</svg>
